<svg width="48" height="24" viewBox="0 0 48 24" fill="none" xmlns="http://www.w3.org/2000/svg">
    <path d="M5.104 16.088C4.69867 16.088 4.41067 15.8747 4.24 15.448C4.08 15.0213 4 14.3387 4 13.4C4 12.0133 4.19733 10.696 4.592 9.448C4.688 9.13867 4.84267 8.91467 5.056 8.776C5.28 8.62667 5.58933 8.552 5.984 8.552C6.19733 8.552 6.34667 8.57867 6.432 8.632C6.51733 8.68533 6.56 8.78667 6.56 8.936C6.56 9.10667 6.48 9.49067 6.32 10.088C6.21333 10.5147 6.128 10.888 6.064 11.208C6 11.528 5.94667 11.9227 5.904 12.392C6.256 11.4747 6.65067 10.728 7.088 10.152C7.52533 9.576 7.952 9.16533 8.368 8.92C8.79467 8.67467 9.184 8.552 9.536 8.552C10.2293 8.552 10.576 8.89867 10.576 9.592C10.576 9.73067 10.528 10.0667 10.432 10.6C10.3467 11.0267 10.304 11.2933 10.304 11.4C10.304 11.7733 10.4373 11.96 10.704 11.96C11.0027 11.96 11.3867 11.7253 11.856 11.256C11.9947 11.1173 12.1387 11.048 12.288 11.048C12.4267 11.048 12.5333 11.112 12.608 11.24C12.6933 11.3573 12.736 11.5173 12.736 11.72C12.736 12.1147 12.6293 12.424 12.416 12.648C12.1173 12.9573 11.7653 13.224 11.36 13.448C10.9653 13.6613 10.544 13.768 10.096 13.768C9.53067 13.768 9.09867 13.624 8.8 13.336C8.512 13.048 8.368 12.6587 8.368 12.168C8.368 12.008 8.384 11.848 8.416 11.688C8.43733 11.4747 8.448 11.3307 8.448 11.256C8.448 11.0853 8.38933 11 8.272 11C8.112 11 7.89867 11.1813 7.632 11.544C7.376 11.896 7.12 12.3653 6.864 12.952C6.608 13.5387 6.4 14.1573 6.24 14.808C6.12267 15.3093 5.984 15.6507 5.824 15.832C5.67467 16.0027 5.43467 16.088 5.104 16.088Z"
          fill="black"/>
    <path d="M13.3453 7.496C12.8973 7.496 12.5612 7.39467 12.3372 7.192C12.1132 6.97867 12.0013 6.68533 12.0013 6.312C12.0013 5.93867 12.1453 5.62933 12.4333 5.384C12.7319 5.128 13.0999 5 13.5373 5C13.9319 5 14.2519 5.096 14.4973 5.288C14.7426 5.48 14.8653 5.752 14.8653 6.104C14.8653 6.53067 14.7266 6.872 14.4493 7.128C14.1719 7.37333 13.8039 7.496 13.3453 7.496ZM13.2172 16.088C12.5239 16.088 12.0172 15.8427 11.6972 15.352C11.3879 14.8613 11.2333 14.2107 11.2333 13.4C11.2333 12.92 11.2919 12.3067 11.4093 11.56C11.5373 10.8027 11.6973 10.0987 11.8893 9.448C11.9853 9.10667 12.1132 8.872 12.2732 8.744C12.4332 8.616 12.6893 8.552 13.0413 8.552C13.5853 8.552 13.8573 8.73333 13.8573 9.096C13.8573 9.36267 13.7559 9.98133 13.5533 10.952C13.2973 12.1253 13.1693 12.92 13.1693 13.336C13.1693 13.656 13.2119 13.9013 13.2972 14.072C13.3826 14.2427 13.5266 14.328 13.7292 14.328C13.9213 14.328 14.1613 14.1947 14.4493 13.928C14.7373 13.6613 15.1213 13.24 15.6013 12.664C15.7293 12.5147 15.8733 12.44 16.0332 12.44C16.1719 12.44 16.2786 12.504 16.3533 12.632C16.4386 12.76 16.4813 12.936 16.4813 13.16C16.4813 13.5867 16.3799 13.9173 16.1772 14.152C15.1212 15.4427 14.1346 16.088 13.2172 16.088Z"
          fill="black"/>
    <path d="M23.263 11.144C23.295 11.1333 23.3483 11.128 23.423 11.128C23.583 11.128 23.7057 11.1813 23.791 11.288C23.8763 11.3947 23.919 11.5387 23.919 11.72C23.919 12.0507 23.855 12.312 23.727 12.504C23.599 12.6853 23.407 12.8187 23.151 12.904C22.6603 13.064 22.1377 13.144 21.583 13.144C21.1137 13.144 20.671 13.08 20.255 12.952C19.9457 13.4533 19.6043 13.9707 19.231 14.504C18.8043 15.112 18.4363 15.528 18.127 15.752C17.8177 15.976 17.4657 16.088 17.071 16.088C16.6337 16.088 16.287 15.9173 16.031 15.576C15.7857 15.2347 15.631 14.696 15.567 13.96C15.439 12.4667 15.375 11.16 15.375 10.04V9.48C15.3857 9.128 15.4817 8.88267 15.663 8.744C15.8443 8.60533 16.1163 8.536 16.479 8.536C16.7563 8.536 16.959 8.6 17.087 8.728C17.2257 8.84533 17.295 9.048 17.295 9.336C17.295 10.5627 17.3697 12.1573 17.519 14.12C18.159 13.1707 18.639 12.4133 18.959 11.848C18.799 11.5387 18.719 11.1707 18.719 10.744C18.719 10.3813 18.799 10.0293 18.959 9.688C19.119 9.34667 19.3377 9.06933 19.615 8.856C19.8923 8.64267 20.207 8.536 20.559 8.536C20.8683 8.536 21.119 8.648 21.311 8.872C21.503 9.08533 21.599 9.4 21.599 9.816C21.599 10.296 21.471 10.8453 21.215 11.464C21.6203 11.4427 22.159 11.3627 22.831 11.224L23.263 11.144Z"
          fill="black"/>
    <path d="M30.6068 11.144C30.6388 11.1333 30.6921 11.128 30.7668 11.128C30.9268 11.128 31.0494 11.1813 31.1348 11.288C31.2201 11.3947 31.2628 11.5387 31.2628 11.72C31.2628 12.0507 31.1988 12.312 31.0708 12.504C30.9428 12.6853 30.7508 12.8187 30.4948 12.904C30.0041 13.064 29.4814 13.144 28.9268 13.144C28.4574 13.144 28.0148 13.08 27.5988 12.952C27.2894 13.4533 26.9481 13.9707 26.5748 14.504C26.1481 15.112 25.7801 15.528 25.4708 15.752C25.1614 15.976 24.8094 16.088 24.4147 16.088C23.9774 16.088 23.6308 15.9173 23.3748 15.576C23.1294 15.2347 22.9747 14.696 22.9107 13.96C22.7827 12.4667 22.7188 11.16 22.7188 10.04V9.48C22.7294 9.128 22.8254 8.88267 23.0068 8.744C23.1881 8.60533 23.4601 8.536 23.8228 8.536C24.1001 8.536 24.3027 8.6 24.4307 8.728C24.5694 8.84533 24.6388 9.048 24.6388 9.336C24.6388 10.5627 24.7134 12.1573 24.8628 14.12C25.5028 13.1707 25.9827 12.4133 26.3027 11.848C26.1427 11.5387 26.0627 11.1707 26.0627 10.744C26.0627 10.3813 26.1427 10.0293 26.3027 9.688C26.4627 9.34667 26.6814 9.06933 26.9587 8.856C27.2361 8.64267 27.5508 8.536 27.9028 8.536C28.2121 8.536 28.4628 8.648 28.6548 8.872C28.8468 9.08533 28.9428 9.4 28.9428 9.816C28.9428 10.296 28.8148 10.8453 28.5588 11.464C28.9641 11.4427 29.5028 11.3627 30.1748 11.224L30.6068 11.144Z"
          fill="black"/>
    <path d="M37.0103 12.44C37.1489 12.44 37.2556 12.504 37.3302 12.632C37.4156 12.76 37.4583 12.936 37.4583 13.16C37.4583 13.5867 37.3569 13.9173 37.1543 14.152C36.7596 14.632 36.1996 15.0747 35.4743 15.48C34.7596 15.8853 33.9916 16.088 33.1702 16.088C32.0502 16.088 31.1809 15.784 30.5623 15.176C29.9436 14.568 29.6343 13.736 29.6343 12.68C29.6343 11.944 29.7889 11.2613 30.0982 10.632C30.4076 9.992 30.8343 9.48533 31.3783 9.112C31.9329 8.73867 32.5569 8.552 33.2502 8.552C33.8689 8.552 34.3649 8.73867 34.7383 9.112C35.1116 9.47467 35.2983 9.97067 35.2983 10.6C35.2983 11.336 35.0316 11.9707 34.4983 12.504C33.9756 13.0267 33.0849 13.4427 31.8263 13.752C32.0929 14.2427 32.5996 14.488 33.3463 14.488C33.8263 14.488 34.3703 14.3227 34.9783 13.992C35.5969 13.6507 36.1303 13.208 36.5783 12.664C36.7063 12.5147 36.8503 12.44 37.0103 12.44ZM32.9783 10.12C32.5836 10.12 32.2476 10.3493 31.9702 10.808C31.7036 11.2667 31.5702 11.8213 31.5702 12.472V12.504C32.1996 12.3547 32.6956 12.1307 33.0583 11.832C33.4209 11.5333 33.6023 11.1867 33.6023 10.792C33.6023 10.5893 33.5436 10.4293 33.4263 10.312C33.3196 10.184 33.1703 10.12 32.9783 10.12Z"
          fill="black"/>
    <path d="M42.6195 10.744C42.8542 10.744 43.0515 10.8293 43.2115 11C43.3822 11.16 43.4675 11.3627 43.4675 11.608C43.4675 11.7467 43.4355 11.896 43.3715 12.056C43.2008 12.4507 42.9608 12.7813 42.6515 13.048C42.3422 13.3147 42.0008 13.448 41.6275 13.448C41.3288 13.448 41.0728 13.3413 40.8595 13.128C40.6568 12.9147 40.5555 12.6267 40.5555 12.264C40.5555 12.0613 40.5662 11.8427 40.5875 11.608C40.6088 11.4373 40.6195 11.32 40.6195 11.256C40.6195 11.1707 40.5982 11.1067 40.5555 11.064C40.5235 11.0213 40.4808 11 40.4275 11C40.2782 11 40.0755 11.1813 39.8195 11.544C39.5635 11.896 39.3075 12.3653 39.0515 12.952C38.7955 13.5387 38.5875 14.1573 38.4275 14.808C38.3102 15.32 38.1768 15.6613 38.0275 15.832C37.8782 16.0027 37.6328 16.088 37.2915 16.088C36.8862 16.088 36.5982 15.8747 36.4275 15.448C36.2675 15.0213 36.1875 14.3387 36.1875 13.4C36.1875 12.0133 36.3848 10.696 36.7795 9.448C36.8755 9.13867 37.0302 8.91467 37.2435 8.776C37.4675 8.62667 37.7768 8.552 38.1715 8.552C38.3848 8.552 38.5342 8.57867 38.6195 8.632C38.7048 8.68533 38.7475 8.78667 38.7475 8.936C38.7475 9.10667 38.6675 9.49067 38.5075 10.088C38.4008 10.5147 38.3155 10.888 38.2515 11.208C38.1875 11.528 38.1342 11.9227 38.0915 12.392C38.4435 11.4747 38.8382 10.728 39.2755 10.152C39.7128 9.576 40.1395 9.16533 40.5555 8.92C40.9715 8.67467 41.3502 8.552 41.6915 8.552C42.0008 8.552 42.2355 8.64267 42.3955 8.824C42.5662 8.99467 42.6515 9.25067 42.6515 9.592C42.6515 9.79467 42.5928 10.1787 42.4755 10.744H42.6195Z"
          fill="black"/>
</svg>
